HIERARCHY
ROOT hip
{
	OFFSET 0.000000 0.000000 0.000000 
	CHANNELS 6 Xposition Yposition Zposition Xrotation Zrotation Yrotation
	JOINT abdomen
	{
		OFFSET 0.000000 3.402643 0.000000 
		CHANNELS 3 Xrotation Zrotation Yrotation
		JOINT chest
		{
			OFFSET 0.000000 8.438565 -0.680529 
			CHANNELS 3 Xrotation Zrotation Yrotation
			JOINT neck
			{
				OFFSET 0.000000 10.207942 -0.272212 
				CHANNELS 3 Xrotation Zrotation Yrotation
				JOINT head
				{
					OFFSET 0.000000 3.130431 0.000000 
					CHANNELS 3 Xrotation Zrotation Yrotation
					End Site
					{
						OFFSET 0.000000 3.130435 0.000000 
					}
				}
			}
			JOINT lCollar
			{
				OFFSET 3.470700 6.669187 -0.816635 
				CHANNELS 3 Yrotation Zrotation Xrotation
				JOINT lShldr
				{
					OFFSET 3.198488 0.000000 0.000000 
					CHANNELS 3 Zrotation Yrotation Xrotation
					JOINT lForeArm
					{
						OFFSET 10.139888 0.000000 0.000000 
						CHANNELS 3 Yrotation Zrotation Xrotation
						JOINT lHand
						{
							OFFSET 8.370511 0.000000 0.000000 
							CHANNELS 3 Zrotation Yrotation Xrotation
							End Site
							{
								OFFSET 4.083176 0.000000 0.000000 
							}
						}
					}
				}
			}
			JOINT rCollar
			{
				OFFSET -3.470700 6.669187 -0.816635 
				CHANNELS 3 Yrotation Zrotation Xrotation
				JOINT rShldr
				{
					OFFSET -3.198488 0.000000 0.000000 
					CHANNELS 3 Zrotation Yrotation Xrotation
					JOINT rForeArm
					{
						OFFSET -10.139888 0.000000 0.000000 
						CHANNELS 3 Yrotation Zrotation Xrotation
						JOINT rHand
						{
							OFFSET -8.370511 0.000000 0.000000 
							CHANNELS 3 Zrotation Yrotation Xrotation
							End Site
							{
								OFFSET -4.083176 0.000000 0.000000 
							}
						}
					}
				}
			}
		}
	}
	JOINT lThigh
	{
		OFFSET 5.308129 -1.633274 1.361059 
		CHANNELS 3 Xrotation Zrotation Yrotation
		JOINT lShin
		{
			OFFSET -2.041588 -20.007561 0.000000 
			CHANNELS 3 Xrotation Zrotation Yrotation
			JOINT lFoot
			{
				OFFSET 0.000000 -19.190928 -1.224953 
				CHANNELS 3 Xrotation Yrotation Zrotation
				End Site
				{
					OFFSET 0.000000 -2.449906 4.627600 
				}
			}
		}
	}
	JOINT rThigh
	{
		OFFSET -5.308129 -1.633274 1.361059 
		CHANNELS 3 Xrotation Zrotation Yrotation
		JOINT rShin
		{
			OFFSET 2.041588 -20.007561 0.000000 
			CHANNELS 3 Xrotation Zrotation Yrotation
			JOINT rFoot
			{
				OFFSET 0.000000 -19.190928 -1.224953 
				CHANNELS 3 Xrotation Yrotation Zrotation
				End Site
				{
					OFFSET 0.000000 -2.449906 4.627600 
				}
			}
		}
	}
}
MOTION
Frames: 13
Frame Time: 0.033333
-0.799525 48.330360 -2.438672 -0.078126 0.322265 -0.518018 0.000000 0.000000 0.000000 -2.460947 -0.156106 0.270381 5.517621 -0.169836 0.313706 6.357386 0.322018 0.036198 -0.075291 9.180695 -1.642854 -4.474458 13.876205 2.428380 -1.209922 -1.278091 4.305199 0.309317 -4.359344 -3.397758 0.036660 -10.063372 -1.709181 7.841657 -9.632469 8.603973 -2.286217 -1.308562 -4.567651 6.758474 1.417996 -3.141235 -3.222158 3.866446 0.521904 13.287116 -4.015139 -1.222036 -9.951168 -0.008961 -0.004320 -0.839727 -4.469552 -6.000142 13.064487 3.837268 1.168973 -11.718740 0.014430 0.007234 
-0.794366 48.335018 -2.416323 -0.214847 0.322263 -0.577380 0.000000 0.000000 0.000000 -2.441438 -0.292703 0.334745 5.609343 0.423634 0.270450 6.904273 -0.302601 0.350774 -0.097036 10.617195 -1.640664 -5.926576 14.250461 2.460851 -1.837981 -1.336550 3.807882 1.707248 -4.597951 -3.501359 0.050749 -9.126269 -1.697640 6.919697 -9.570024 9.012856 -2.270555 -1.121816 -4.928013 6.861823 1.687366 -3.124053 -2.947944 3.875067 0.501972 13.170059 -4.015172 -1.680939 -9.960934 -0.005093 0.029949 -0.605667 -4.538000 -6.065502 12.961240 3.902863 1.567510 -11.708968 0.011602 -0.059388 
-0.790588 48.338169 -2.376102 -0.068360 0.273437 -0.625326 0.000000 0.000000 0.000000 -2.656269 -0.214613 0.293160 5.550545 0.544227 0.369610 7.236315 -0.253834 0.474808 -0.161815 10.367088 -1.831807 -5.462966 15.473225 2.274971 -4.090075 -0.915884 4.928143 -1.048547 -3.617494 -3.323765 -0.030682 -9.095059 -1.898461 6.910781 -9.374828 8.896088 -2.262050 -1.079329 -5.160020 6.815758 1.821887 -3.117222 -3.051338 3.879864 0.515598 13.169282 -3.995372 -1.250449 -9.999996 -0.008255 -0.003984 -0.624528 -4.476804 -6.033534 12.782558 3.886245 1.552537 -11.660149 0.023485 -0.031703 
-0.788327 48.333889 -2.324545 0.058595 0.322265 -0.751569 0.000000 0.000000 0.000000 -2.880875 -0.185312 0.321825 5.531609 0.587444 0.407029 7.197239 -0.351457 0.526206 0.128263 10.729413 -2.048184 -6.054420 15.469487 1.823805 -4.566096 -0.635981 5.705576 -1.750007 -3.521055 -3.289634 -0.006098 -9.370802 -2.090473 7.187011 -9.392632 8.843170 -2.288386 -1.208552 -4.434803 7.431699 2.205524 -3.054925 -3.142274 3.835109 0.488200 13.180309 -3.976168 -1.083723 -10.048803 -0.008853 -0.036692 -0.673808 -4.557405 -6.020239 12.834663 3.904177 1.996761 -11.777285 0.011416 -0.102968 
-0.787694 48.334263 -2.286163 -0.019532 0.380859 -0.791146 0.000000 0.000000 0.000000 -2.900401 -0.156050 0.242281 5.442485 0.555717 0.435342 7.812487 -0.332000 0.600287 0.146913 10.407022 -2.077688 -5.843484 14.836651 2.335027 -2.976665 -1.018018 5.005776 0.222637 -4.550376 -3.392596 -0.183259 -9.686266 -2.127126 7.504797 -9.156281 8.571781 -2.300761 -1.314635 -4.118507 7.462152 1.991953 -3.072802 -2.944409 3.743798 0.378924 13.043381 -3.907808 -1.193787 -10.058570 0.001066 -0.053510 -0.595284 -4.622027 -6.041559 12.889889 3.857052 1.976433 -11.835930 0.012849 -0.047903 
-0.773349 48.344585 -2.257583 -0.019532 0.458984 -0.888828 0.000000 0.000000 0.000000 -2.968767 -0.195050 0.264022 5.384724 0.632385 0.420929 7.900375 -0.380831 0.629674 0.087736 10.536421 -2.136686 -6.067559 15.460231 2.174351 -4.171428 -0.806177 5.575787 -0.685522 -4.290871 -3.336669 -0.366331 -9.376765 -2.209268 7.137187 -8.963315 8.728270 -2.290148 -1.202137 -4.375774 7.673760 2.061370 -3.058476 -2.692084 3.716120 0.466277 12.718696 -4.053455 -1.329991 -9.960925 0.001771 0.033258 -0.478875 -4.753940 -6.153939 12.787536 3.932696 2.249146 -11.826090 0.009114 -0.115007 
-0.762400 48.326328 -2.253153 0.117191 0.429687 -0.838892 0.000000 0.000000 0.000000 -3.154304 -0.117010 0.182230 5.286047 0.691931 0.367293 7.988272 -0.322247 0.618695 -0.088490 10.613537 -2.289927 -6.281543 15.293251 2.300600 -3.511131 -0.929402 5.497867 0.226135 -4.608866 -3.393380 -0.293955 -9.506160 -2.369859 7.325453 -9.235528 8.736948 -2.289889 -1.286533 -4.439291 7.836838 1.737162 -3.077124 -3.015840 3.728318 0.450060 13.094519 -4.033194 -1.316541 -10.156250 -0.008531 0.017485 -0.790776 -4.743886 -6.113320 13.086772 3.903883 2.102819 -11.972630 0.016687 -0.078605 
-0.754849 48.339424 -2.258251 0.458991 0.302725 -0.612758 0.000000 0.000000 0.000000 -3.447266 0.009748 -0.049415 5.127117 0.796832 0.236206 7.939449 -0.214829 0.637256 -0.234072 10.751543 -2.559721 -6.454048 15.429503 2.635981 -3.571943 -1.108700 5.101362 0.467607 -5.034724 -3.408082 -0.579072 -9.306246 -2.633851 7.144718 -9.187776 8.932925 -2.257537 -1.062421 -5.286141 6.766144 2.024673 -3.100654 -3.422851 3.832397 0.439749 13.071086 -4.002660 -1.692028 -10.058550 -0.012908 0.091008 -0.898388 -4.596792 -5.989659 12.638234 3.893909 1.835534 -11.767571 0.015529 -0.003077 
-0.743524 48.332752 -2.245743 0.449224 0.283194 -0.622731 0.000000 0.000000 0.000000 -3.437505 0.097481 -0.162105 4.920986 0.829833 0.210336 8.105450 -0.507793 0.756367 -0.209793 10.379601 -2.555614 -6.087170 14.924307 3.066800 -2.467761 -1.346816 4.878610 0.641389 -5.474369 -3.409863 -0.733233 -9.542918 -2.634587 7.495924 -9.117034 9.041987 -2.196379 -0.803956 -6.932214 5.996700 1.593342 -3.172442 -3.416802 3.836573 0.449720 13.191052 -4.013206 -1.682193 -10.175714 -0.010472 0.103021 -0.907461 -4.572607 -6.008086 12.713442 3.895961 1.704343 -11.806631 0.000143 0.032684 
-0.717979 48.323067 -2.237777 0.634780 0.390601 -0.649903 0.000000 0.000000 0.000000 -3.613284 0.068223 -0.248449 4.773673 0.758630 0.216815 8.105465 -0.234366 0.783287 -0.437577 10.031361 -2.697143 -5.773755 14.926437 3.455463 -1.942566 -1.445374 4.858306 0.218795 -5.470203 -3.384450 -0.759204 -9.569462 -2.788629 7.330304 -9.244758 9.549511 -2.174825 -0.600447 -7.428885 5.957220 1.415236 -3.185244 -3.632285 3.710438 0.385365 13.231512 -4.013699 -1.373437 -10.205002 -0.001841 0.096403 -1.171692 -4.725230 -6.073407 12.994264 3.934227 1.845380 -11.992176 0.011199 0.016525 
-0.682868 48.337280 -2.229004 0.722672 0.380829 -0.668960 0.000000 0.000000 0.000000 -3.681649 0.126691 -0.408543 4.568139 0.654611 0.219560 8.212880 0.429677 0.719727 -0.317981 9.871426 -2.789362 -5.839426 14.700966 3.042710 -1.644881 -1.263580 5.357857 0.042738 -5.646948 -3.364364 -0.800196 -9.526837 -2.840026 7.349803 -9.215689 9.010409 -2.177485 -0.752206 -7.163298 6.061856 1.841250 -3.148249 -3.616807 3.626635 0.303277 12.991767 -3.941289 -1.222634 -10.068329 -0.015385 0.079008 -1.191274 -4.705726 -5.994222 12.740223 3.846378 1.643399 -11.835792 0.002033 0.131484 
-0.647003 48.336903 -2.237221 0.625012 0.351542 -0.601574 0.000000 0.000000 0.000000 -3.564468 0.165694 -0.508368 4.567144 0.734920 0.082183 7.724578 0.488224 0.685870 -0.518900 9.821465 -2.663701 -5.746814 14.447689 3.164575 -0.957100 -1.310819 5.582124 0.005546 -6.011114 -3.353044 -1.029293 -9.672249 -2.747988 7.765339 -9.164129 8.831810 -2.181940 -0.844260 -7.090370 5.873018 1.713948 -3.170769 -3.519548 3.617097 0.269661 13.032574 -3.934478 -1.604731 -10.097510 -0.022952 0.161805 -1.072963 -4.668736 -6.008405 12.722747 3.827325 1.406444 -11.816132 -0.011348 0.200852 
-0.608497 48.343575 -2.255218 0.546881 0.263660 -0.641970 0.000000 0.000000 0.000000 -3.408239 0.263206 -0.552785 4.450352 0.756186 0.104543 6.884435 1.122541 0.562021 -0.543080 9.712953 -2.531749 -5.671146 14.594383 3.031610 -1.337832 -1.202729 5.952836 -0.525567 -6.335833 -3.311946 -1.039964 -9.672948 -2.608225 7.709330 -9.261933 9.245984 -2.167026 -0.632045 -7.391085 5.537261 1.960196 -3.163203 -3.435734 3.679811 0.298047 13.017717 -3.933356 -1.759731 -10.087430 -0.010982 0.243231 -0.908073 -4.636182 -5.972570 12.497500 3.817444 1.506296 -11.679318 -0.007594 0.224383 
